<svg width="277" height="37" viewBox="0 0 277 37" fill="none" xmlns="http://www.w3.org/2000/svg">
<path d="M53.884 10.592C54.3173 10.6093 54.898 10.6267 55.626 10.644C56.3713 10.6613 57.108 10.67 57.836 10.67C58.668 10.67 59.474 10.6613 60.254 10.644C61.034 10.6267 61.5887 10.618 61.918 10.618C64.3273 10.618 66.13 11.0947 67.326 12.048C68.522 13.0013 69.12 14.232 69.12 15.74C69.12 16.364 68.9987 17.0227 68.756 17.716C68.5133 18.392 68.0973 19.0247 67.508 19.614C66.936 20.186 66.1473 20.654 65.142 21.018C64.1367 21.382 62.8713 21.564 61.346 21.564H58.694V21.044H61.086C62.1087 21.044 62.88 20.81 63.4 20.342C63.9373 19.874 64.3013 19.2587 64.492 18.496C64.7 17.7333 64.804 16.91 64.804 16.026C64.804 14.3793 64.5613 13.1487 64.076 12.334C63.5907 11.5193 62.7587 11.112 61.58 11.112C60.904 11.112 60.462 11.2593 60.254 11.554C60.0633 11.8487 59.968 12.4467 59.968 13.348V26.088C59.968 26.764 60.0373 27.2667 60.176 27.596C60.3147 27.9253 60.5833 28.142 60.982 28.246C61.3807 28.35 61.97 28.4107 62.75 28.428V29C62.2127 28.9827 61.5193 28.9653 60.67 28.948C59.8207 28.9307 58.928 28.922 57.992 28.922C57.2467 28.922 56.5187 28.9307 55.808 28.948C55.0973 28.9653 54.456 28.9827 53.884 29V28.48C54.4387 28.4453 54.8547 28.376 55.132 28.272C55.4093 28.168 55.5913 27.96 55.678 27.648C55.782 27.336 55.834 26.868 55.834 26.244V13.348C55.834 12.7067 55.782 12.2387 55.678 11.944C55.5913 11.632 55.4007 11.424 55.106 11.32C54.8287 11.1987 54.4213 11.1293 53.884 11.112V10.592ZM73.5636 29.182C72.7836 29.182 72.1336 29.0347 71.6136 28.74C71.0936 28.4453 70.7122 28.0553 70.4696 27.57C70.2269 27.0673 70.1056 26.5213 70.1056 25.932C70.1056 25.1867 70.2702 24.58 70.5996 24.112C70.9462 23.644 71.3882 23.2627 71.9256 22.968C72.4629 22.6733 73.0262 22.4307 73.6156 22.24C74.2222 22.0493 74.7942 21.8673 75.3316 21.694C75.8862 21.5033 76.3282 21.2867 76.6576 21.044C77.0042 20.784 77.1776 20.4547 77.1776 20.056V18.028C77.1776 17.5773 77.0996 17.1787 76.9436 16.832C76.8049 16.468 76.5796 16.1907 76.2676 16C75.9729 15.8093 75.5829 15.714 75.0976 15.714C74.7509 15.714 74.4042 15.766 74.0576 15.87C73.7109 15.9567 73.4249 16.1127 73.1996 16.338C73.6849 16.5113 74.0576 16.78 74.3176 17.144C74.5949 17.4907 74.7336 17.8893 74.7336 18.34C74.7336 18.9293 74.5256 19.3973 74.1096 19.744C73.7109 20.0907 73.2342 20.264 72.6796 20.264C72.0556 20.264 71.5789 20.0733 71.2496 19.692C70.9376 19.2933 70.7816 18.8167 70.7816 18.262C70.7816 17.7593 70.9029 17.3433 71.1456 17.014C71.4056 16.6847 71.7609 16.3727 72.2116 16.078C72.6969 15.8007 73.2776 15.584 73.9536 15.428C74.6469 15.272 75.3922 15.194 76.1896 15.194C76.9869 15.194 77.7062 15.2807 78.3476 15.454C78.9889 15.61 79.5262 15.9047 79.9596 16.338C80.3582 16.7367 80.6182 17.2307 80.7396 17.82C80.8609 18.392 80.9216 19.12 80.9216 20.004V27.076C80.9216 27.5093 80.9649 27.8127 81.0516 27.986C81.1382 28.142 81.2856 28.22 81.4936 28.22C81.6496 28.22 81.7969 28.1767 81.9356 28.09C82.0916 28.0033 82.2562 27.8993 82.4296 27.778L82.6896 28.22C82.3256 28.532 81.9009 28.7747 81.4156 28.948C80.9476 29.104 80.4189 29.182 79.8296 29.182C79.1882 29.182 78.6769 29.0953 78.2956 28.922C77.9142 28.7313 77.6369 28.48 77.4636 28.168C77.3076 27.856 77.2296 27.492 77.2296 27.076C76.8136 27.7347 76.3109 28.2547 75.7216 28.636C75.1322 29 74.4129 29.182 73.5636 29.182ZM75.4096 27.518C75.7562 27.518 76.0682 27.44 76.3456 27.284C76.6402 27.1107 76.9176 26.8333 77.1776 26.452V21.122C77.0216 21.382 76.8049 21.616 76.5276 21.824C76.2502 22.032 75.9556 22.2487 75.6436 22.474C75.3316 22.682 75.0282 22.916 74.7336 23.176C74.4562 23.436 74.2309 23.7567 74.0576 24.138C73.8842 24.5193 73.7976 24.9787 73.7976 25.516C73.7976 26.192 73.9449 26.6947 74.2396 27.024C74.5342 27.3533 74.9242 27.518 75.4096 27.518ZM93.1046 15.194C93.8326 15.194 94.4219 15.2893 94.8726 15.48C95.3406 15.6533 95.7046 15.896 95.9646 16.208C96.2419 16.5373 96.4413 16.962 96.5626 17.482C96.7013 18.002 96.7706 18.704 96.7706 19.588V26.582C96.7706 27.31 96.8919 27.804 97.1346 28.064C97.3946 28.324 97.8279 28.454 98.4346 28.454V29C98.1053 28.9827 97.6113 28.9653 96.9526 28.948C96.2939 28.9133 95.6439 28.896 95.0026 28.896C94.3439 28.896 93.6939 28.9133 93.0526 28.948C92.4286 28.9653 91.9519 28.9827 91.6226 29V28.454C92.1426 28.454 92.5066 28.324 92.7146 28.064C92.9226 27.804 93.0266 27.31 93.0266 26.582V18.496C93.0266 18.0627 92.9833 17.69 92.8966 17.378C92.8099 17.0487 92.6539 16.7973 92.4286 16.624C92.2033 16.4333 91.8653 16.338 91.4146 16.338C90.9466 16.338 90.5133 16.468 90.1146 16.728C89.7333 16.988 89.4213 17.352 89.1786 17.82C88.9533 18.2707 88.8406 18.782 88.8406 19.354V26.582C88.8406 27.31 88.9446 27.804 89.1526 28.064C89.3779 28.324 89.7419 28.454 90.2446 28.454V29C89.9326 28.9827 89.4733 28.9653 88.8666 28.948C88.2773 28.9133 87.6619 28.896 87.0206 28.896C86.3619 28.896 85.6859 28.9133 84.9926 28.948C84.2993 28.9653 83.7793 28.9827 83.4326 29V28.454C84.0393 28.454 84.4639 28.324 84.7066 28.064C84.9666 27.804 85.0966 27.31 85.0966 26.582V18.392C85.0966 17.612 84.9753 17.04 84.7326 16.676C84.5073 16.2947 84.0739 16.104 83.4326 16.104V15.558C83.9873 15.61 84.5246 15.636 85.0446 15.636C85.7726 15.636 86.4486 15.61 87.0726 15.558C87.7139 15.4887 88.3033 15.3933 88.8406 15.272V17.612C89.2739 16.728 89.8633 16.104 90.6086 15.74C91.3539 15.376 92.1859 15.194 93.1046 15.194ZM104.27 33.888C103.195 33.888 102.233 33.7927 101.384 33.602C100.552 33.4287 99.8929 33.1513 99.4076 32.77C98.9396 32.406 98.7056 31.9553 98.7056 31.418C98.7056 30.8807 98.9482 30.3953 99.4336 29.962C99.9189 29.546 100.638 29.2167 101.592 28.974L101.826 29.39C101.496 29.65 101.254 29.9273 101.098 30.222C100.959 30.534 100.89 30.8547 100.89 31.184C100.89 31.912 101.219 32.4667 101.878 32.848C102.554 33.2467 103.464 33.446 104.608 33.446C105.388 33.446 106.081 33.342 106.688 33.134C107.312 32.926 107.797 32.614 108.144 32.198C108.508 31.782 108.69 31.2707 108.69 30.664C108.69 30.144 108.499 29.702 108.118 29.338C107.736 28.9913 106.974 28.818 105.83 28.818H104.218C103.507 28.818 102.883 28.74 102.346 28.584C101.826 28.428 101.418 28.1853 101.124 27.856C100.829 27.5093 100.682 27.076 100.682 26.556C100.682 25.828 100.968 25.1867 101.54 24.632C102.112 24.0773 102.961 23.5573 104.088 23.072L104.348 23.28C104.018 23.488 103.706 23.7133 103.412 23.956C103.134 24.1813 102.996 24.476 102.996 24.84C102.996 25.3947 103.342 25.672 104.036 25.672H106.87C107.823 25.672 108.672 25.7847 109.418 26.01C110.18 26.2353 110.778 26.608 111.212 27.128C111.662 27.6307 111.888 28.2893 111.888 29.104C111.888 29.9533 111.61 30.742 111.056 31.47C110.518 32.198 109.686 32.7787 108.56 33.212C107.433 33.6627 106.003 33.888 104.27 33.888ZM104.53 23.462C103.542 23.462 102.658 23.3147 101.878 23.02C101.098 22.7253 100.482 22.2747 100.032 21.668C99.5809 21.0613 99.3556 20.2813 99.3556 19.328C99.3556 18.3747 99.5809 17.5947 100.032 16.988C100.482 16.364 101.098 15.9133 101.878 15.636C102.658 15.3413 103.542 15.194 104.53 15.194C105.518 15.194 106.402 15.3413 107.182 15.636C107.962 15.9133 108.577 16.364 109.028 16.988C109.478 17.5947 109.704 18.3747 109.704 19.328C109.704 20.2813 109.478 21.0613 109.028 21.668C108.577 22.2747 107.962 22.7253 107.182 23.02C106.402 23.3147 105.518 23.462 104.53 23.462ZM104.53 22.994C104.998 22.994 105.362 22.734 105.622 22.214C105.882 21.6767 106.012 20.7147 106.012 19.328C106.012 17.9413 105.882 16.988 105.622 16.468C105.362 15.9307 104.998 15.662 104.53 15.662C104.079 15.662 103.715 15.9307 103.438 16.468C103.178 16.988 103.048 17.9413 103.048 19.328C103.048 20.7147 103.178 21.6767 103.438 22.214C103.715 22.734 104.079 22.994 104.53 22.994ZM108.586 17.43L108.066 17.248C108.326 16.572 108.742 16.0087 109.314 15.558C109.903 15.1073 110.536 14.882 111.212 14.882C111.766 14.882 112.182 15.038 112.46 15.35C112.754 15.6447 112.902 16.0347 112.902 16.52C112.902 17.04 112.763 17.43 112.486 17.69C112.208 17.9327 111.896 18.054 111.55 18.054C111.255 18.054 110.978 17.95 110.718 17.742C110.475 17.534 110.336 17.222 110.302 16.806C110.267 16.3727 110.414 15.818 110.744 15.142L110.926 15.298C110.267 15.5407 109.773 15.8267 109.444 16.156C109.114 16.468 108.828 16.8927 108.586 17.43ZM119.898 15.194C121.164 15.194 122.273 15.428 123.226 15.896C124.18 16.364 124.925 17.118 125.462 18.158C126 19.198 126.268 20.576 126.268 22.292C126.268 24.008 126 25.386 125.462 26.426C124.925 27.4487 124.18 28.194 123.226 28.662C122.273 29.13 121.164 29.364 119.898 29.364C118.668 29.364 117.567 29.13 116.596 28.662C115.643 28.194 114.889 27.4487 114.334 26.426C113.797 25.386 113.528 24.008 113.528 22.292C113.528 20.576 113.797 19.198 114.334 18.158C114.889 17.118 115.643 16.364 116.596 15.896C117.567 15.428 118.668 15.194 119.898 15.194ZM119.898 15.714C119.205 15.714 118.624 16.234 118.156 17.274C117.688 18.2967 117.454 19.9693 117.454 22.292C117.454 24.6147 117.688 26.2873 118.156 27.31C118.624 28.3327 119.205 28.844 119.898 28.844C120.609 28.844 121.19 28.3327 121.64 27.31C122.108 26.2873 122.342 24.6147 122.342 22.292C122.342 19.9693 122.108 18.2967 121.64 17.274C121.19 16.234 120.609 15.714 119.898 15.714ZM132.942 8.642V26.582C132.942 27.31 133.063 27.804 133.306 28.064C133.566 28.324 133.999 28.454 134.606 28.454V29C134.276 28.9827 133.782 28.9653 133.124 28.948C132.465 28.9133 131.798 28.896 131.122 28.896C130.446 28.896 129.761 28.9133 129.068 28.948C128.392 28.9653 127.88 28.9827 127.534 29V28.454C128.14 28.454 128.565 28.324 128.808 28.064C129.068 27.804 129.198 27.31 129.198 26.582V11.762C129.198 10.982 129.076 10.41 128.834 10.046C128.608 9.66467 128.175 9.474 127.534 9.474V8.928C128.088 8.98 128.626 9.006 129.146 9.006C129.856 9.006 130.532 8.98 131.174 8.928C131.815 8.85867 132.404 8.76333 132.942 8.642ZM139.092 8.85C139.82 8.85 140.392 9.032 140.808 9.396C141.241 9.74267 141.458 10.228 141.458 10.852C141.458 11.476 141.241 11.97 140.808 12.334C140.392 12.6807 139.82 12.854 139.092 12.854C138.364 12.854 137.783 12.6807 137.35 12.334C136.934 11.97 136.726 11.476 136.726 10.852C136.726 10.228 136.934 9.74267 137.35 9.396C137.783 9.032 138.364 8.85 139.092 8.85ZM141.12 15.272V26.582C141.12 27.31 141.241 27.804 141.484 28.064C141.744 28.324 142.177 28.454 142.784 28.454V29C142.472 28.9827 141.987 28.9653 141.328 28.948C140.669 28.9133 140.002 28.896 139.326 28.896C138.65 28.896 137.965 28.9133 137.272 28.948C136.579 28.9653 136.059 28.9827 135.712 29V28.454C136.319 28.454 136.743 28.324 136.986 28.064C137.246 27.804 137.376 27.31 137.376 26.582V18.392C137.376 17.612 137.255 17.04 137.012 16.676C136.787 16.2947 136.353 16.104 135.712 16.104V15.558C136.267 15.61 136.804 15.636 137.324 15.636C138.052 15.636 138.728 15.61 139.352 15.558C139.993 15.4887 140.583 15.3933 141.12 15.272ZM153.585 15.194C154.313 15.194 154.902 15.2893 155.353 15.48C155.821 15.6533 156.185 15.896 156.445 16.208C156.722 16.5373 156.922 16.962 157.043 17.482C157.182 18.002 157.251 18.704 157.251 19.588V26.582C157.251 27.31 157.372 27.804 157.615 28.064C157.875 28.324 158.308 28.454 158.915 28.454V29C158.586 28.9827 158.092 28.9653 157.433 28.948C156.774 28.9133 156.124 28.896 155.483 28.896C154.824 28.896 154.174 28.9133 153.533 28.948C152.909 28.9653 152.432 28.9827 152.103 29V28.454C152.623 28.454 152.987 28.324 153.195 28.064C153.403 27.804 153.507 27.31 153.507 26.582V18.496C153.507 18.0627 153.464 17.69 153.377 17.378C153.29 17.0487 153.134 16.7973 152.909 16.624C152.684 16.4333 152.346 16.338 151.895 16.338C151.427 16.338 150.994 16.468 150.595 16.728C150.214 16.988 149.902 17.352 149.659 17.82C149.434 18.2707 149.321 18.782 149.321 19.354V26.582C149.321 27.31 149.425 27.804 149.633 28.064C149.858 28.324 150.222 28.454 150.725 28.454V29C150.413 28.9827 149.954 28.9653 149.347 28.948C148.758 28.9133 148.142 28.896 147.501 28.896C146.842 28.896 146.166 28.9133 145.473 28.948C144.78 28.9653 144.26 28.9827 143.913 29V28.454C144.52 28.454 144.944 28.324 145.187 28.064C145.447 27.804 145.577 27.31 145.577 26.582V18.392C145.577 17.612 145.456 17.04 145.213 16.676C144.988 16.2947 144.554 16.104 143.913 16.104V15.558C144.468 15.61 145.005 15.636 145.525 15.636C146.253 15.636 146.929 15.61 147.553 15.558C148.194 15.4887 148.784 15.3933 149.321 15.272V17.612C149.754 16.728 150.344 16.104 151.089 15.74C151.834 15.376 152.666 15.194 153.585 15.194ZM161.719 10.228C162.152 10.228 162.525 10.306 162.837 10.462C163.149 10.618 163.392 10.8433 163.565 11.138C163.756 11.3807 163.894 11.7013 163.981 12.1C164.085 12.4987 164.137 12.8973 164.137 13.296C164.137 14.1627 163.912 14.9687 163.461 15.714C163.028 16.442 162.343 17.0227 161.407 17.456L161.173 16.988C161.658 16.78 162.092 16.4593 162.473 16.026C162.854 15.5927 163.08 15.1507 163.149 14.7C163.236 14.3187 163.236 13.9547 163.149 13.608C162.768 14.024 162.265 14.232 161.641 14.232C161.034 14.232 160.54 14.0587 160.159 13.712C159.778 13.348 159.587 12.854 159.587 12.23C159.587 11.6233 159.786 11.138 160.185 10.774C160.601 10.41 161.112 10.228 161.719 10.228ZM170.694 15.194C171.422 15.194 172.055 15.2893 172.592 15.48C173.147 15.6533 173.545 15.8267 173.788 16C174.377 16.3987 174.741 16.1387 174.88 15.22H175.426C175.391 15.7053 175.365 16.3033 175.348 17.014C175.331 17.7073 175.322 18.6347 175.322 19.796H174.776C174.689 19.1547 174.525 18.522 174.282 17.898C174.039 17.274 173.684 16.7627 173.216 16.364C172.765 15.9653 172.176 15.766 171.448 15.766C170.945 15.766 170.521 15.9133 170.174 16.208C169.827 16.4853 169.654 16.8927 169.654 17.43C169.654 17.95 169.81 18.4093 170.122 18.808C170.434 19.1893 170.833 19.562 171.318 19.926C171.821 20.2727 172.341 20.6453 172.878 21.044C173.45 21.4773 173.97 21.9107 174.438 22.344C174.906 22.76 175.279 23.2193 175.556 23.722C175.833 24.2247 175.972 24.8227 175.972 25.516C175.972 26.296 175.747 26.9807 175.296 27.57C174.845 28.142 174.247 28.584 173.502 28.896C172.774 29.208 171.959 29.364 171.058 29.364C170.538 29.364 170.07 29.312 169.654 29.208C169.255 29.104 168.909 28.974 168.614 28.818C168.389 28.714 168.172 28.6187 167.964 28.532C167.773 28.428 167.591 28.3413 167.418 28.272C167.245 28.22 167.089 28.2807 166.95 28.454C166.829 28.6273 166.733 28.87 166.664 29.182H166.118C166.153 28.6273 166.179 27.9513 166.196 27.154C166.213 26.3567 166.222 25.2993 166.222 23.982H166.768C166.872 24.918 167.063 25.75 167.34 26.478C167.617 27.1887 167.99 27.752 168.458 28.168C168.943 28.5667 169.55 28.766 170.278 28.766C170.573 28.766 170.859 28.7053 171.136 28.584C171.413 28.4627 171.639 28.2633 171.812 27.986C172.003 27.7087 172.098 27.3533 172.098 26.92C172.098 26.1573 171.847 25.5247 171.344 25.022C170.859 24.5193 170.235 23.9733 169.472 23.384C168.917 22.9333 168.389 22.4913 167.886 22.058C167.401 21.6073 167.002 21.122 166.69 20.602C166.378 20.0647 166.222 19.458 166.222 18.782C166.222 18.002 166.43 17.3433 166.846 16.806C167.262 16.2687 167.808 15.87 168.484 15.61C169.177 15.3327 169.914 15.194 170.694 15.194ZM193.322 10.228C194.466 10.228 195.402 10.4013 196.13 10.748C196.875 11.0773 197.534 11.4673 198.106 11.918C198.453 12.178 198.713 12.2127 198.886 12.022C199.077 11.814 199.207 11.3373 199.276 10.592H199.874C199.839 11.268 199.813 12.0913 199.796 13.062C199.779 14.0153 199.77 15.2893 199.77 16.884H199.172C199.085 16.0867 198.973 15.4107 198.834 14.856C198.695 14.284 198.505 13.7813 198.262 13.348C198.019 12.9147 197.673 12.5247 197.222 12.178C196.789 11.7447 196.286 11.424 195.714 11.216C195.142 11.008 194.544 10.904 193.92 10.904C192.984 10.904 192.187 11.1553 191.528 11.658C190.869 12.1433 190.332 12.8107 189.916 13.66C189.517 14.5093 189.223 15.4713 189.032 16.546C188.841 17.6033 188.746 18.704 188.746 19.848C188.746 21.0093 188.841 22.1273 189.032 23.202C189.24 24.2593 189.552 25.204 189.968 26.036C190.401 26.868 190.956 27.5267 191.632 28.012C192.308 28.4973 193.105 28.74 194.024 28.74C194.596 28.74 195.168 28.636 195.74 28.428C196.329 28.2027 196.832 27.882 197.248 27.466C197.924 26.946 198.383 26.3047 198.626 25.542C198.869 24.762 199.051 23.7307 199.172 22.448H199.77C199.77 24.0947 199.779 25.4293 199.796 26.452C199.813 27.4573 199.839 28.3067 199.874 29H199.276C199.207 28.2547 199.085 27.7867 198.912 27.596C198.756 27.4053 198.487 27.4313 198.106 27.674C197.465 28.1247 196.78 28.5233 196.052 28.87C195.341 29.1993 194.423 29.364 193.296 29.364C191.459 29.364 189.847 28.9913 188.46 28.246C187.091 27.5007 186.025 26.426 185.262 25.022C184.499 23.618 184.118 21.928 184.118 19.952C184.118 18.0107 184.508 16.312 185.288 14.856C186.085 13.4 187.169 12.2647 188.538 11.45C189.925 10.6353 191.519 10.228 193.322 10.228ZM208.664 15.194C209.929 15.194 211.039 15.428 211.992 15.896C212.945 16.364 213.691 17.118 214.228 18.158C214.765 19.198 215.034 20.576 215.034 22.292C215.034 24.008 214.765 25.386 214.228 26.426C213.691 27.4487 212.945 28.194 211.992 28.662C211.039 29.13 209.929 29.364 208.664 29.364C207.433 29.364 206.333 29.13 205.362 28.662C204.409 28.194 203.655 27.4487 203.1 26.426C202.563 25.386 202.294 24.008 202.294 22.292C202.294 20.576 202.563 19.198 203.1 18.158C203.655 17.118 204.409 16.364 205.362 15.896C206.333 15.428 207.433 15.194 208.664 15.194ZM208.664 15.714C207.971 15.714 207.39 16.234 206.922 17.274C206.454 18.2967 206.22 19.9693 206.22 22.292C206.22 24.6147 206.454 26.2873 206.922 27.31C207.39 28.3327 207.971 28.844 208.664 28.844C209.375 28.844 209.955 28.3327 210.406 27.31C210.874 26.2873 211.108 24.6147 211.108 22.292C211.108 19.9693 210.874 18.2967 210.406 17.274C209.955 16.234 209.375 15.714 208.664 15.714ZM226.329 15.194C227.057 15.194 227.647 15.2893 228.097 15.48C228.565 15.6533 228.929 15.896 229.189 16.208C229.467 16.5373 229.666 16.962 229.787 17.482C229.926 18.002 229.995 18.704 229.995 19.588V26.582C229.995 27.31 230.117 27.804 230.359 28.064C230.619 28.324 231.053 28.454 231.659 28.454V29C231.33 28.9827 230.836 28.9653 230.177 28.948C229.519 28.9133 228.869 28.896 228.227 28.896C227.569 28.896 226.919 28.9133 226.277 28.948C225.653 28.9653 225.177 28.9827 224.847 29V28.454C225.367 28.454 225.731 28.324 225.939 28.064C226.147 27.804 226.251 27.31 226.251 26.582V18.496C226.251 18.0627 226.208 17.69 226.121 17.378C226.035 17.0487 225.879 16.7973 225.653 16.624C225.428 16.4333 225.09 16.338 224.639 16.338C224.171 16.338 223.738 16.468 223.339 16.728C222.958 16.988 222.646 17.352 222.403 17.82C222.178 18.2707 222.065 18.782 222.065 19.354V26.582C222.065 27.31 222.169 27.804 222.377 28.064C222.603 28.324 222.967 28.454 223.469 28.454V29C223.157 28.9827 222.698 28.9653 222.091 28.948C221.502 28.9133 220.887 28.896 220.245 28.896C219.587 28.896 218.911 28.9133 218.217 28.948C217.524 28.9653 217.004 28.9827 216.657 29V28.454C217.264 28.454 217.689 28.324 217.931 28.064C218.191 27.804 218.321 27.31 218.321 26.582V18.392C218.321 17.612 218.2 17.04 217.957 16.676C217.732 16.2947 217.299 16.104 216.657 16.104V15.558C217.212 15.61 217.749 15.636 218.269 15.636C218.997 15.636 219.673 15.61 220.297 15.558C220.939 15.4887 221.528 15.3933 222.065 15.272V17.612C222.499 16.728 223.088 16.104 223.833 15.74C224.579 15.376 225.411 15.194 226.329 15.194ZM237.906 11.294V15.558H240.974V16.078H237.906V26.582C237.906 27.102 238.001 27.4747 238.192 27.7C238.383 27.908 238.669 28.012 239.05 28.012C239.362 28.012 239.674 27.8993 239.986 27.674C240.298 27.4313 240.575 27.024 240.818 26.452L241.26 26.686C240.983 27.466 240.558 28.1073 239.986 28.61C239.431 29.1127 238.669 29.364 237.698 29.364C237.126 29.364 236.623 29.286 236.19 29.13C235.757 28.9913 235.393 28.7747 235.098 28.48C234.717 28.0987 234.465 27.6307 234.344 27.076C234.223 26.504 234.162 25.7673 234.162 24.866V16.078H231.978V15.558H234.162V12.126C234.89 12.126 235.557 12.0653 236.164 11.944C236.788 11.8053 237.369 11.5887 237.906 11.294ZM245.357 29.182C244.577 29.182 243.927 29.0347 243.407 28.74C242.887 28.4453 242.505 28.0553 242.263 27.57C242.02 27.0673 241.899 26.5213 241.899 25.932C241.899 25.1867 242.063 24.58 242.393 24.112C242.739 23.644 243.181 23.2627 243.719 22.968C244.256 22.6733 244.819 22.4307 245.409 22.24C246.015 22.0493 246.587 21.8673 247.125 21.694C247.679 21.5033 248.121 21.2867 248.451 21.044C248.797 20.784 248.971 20.4547 248.971 20.056V18.028C248.971 17.5773 248.893 17.1787 248.737 16.832C248.598 16.468 248.373 16.1907 248.061 16C247.766 15.8093 247.376 15.714 246.891 15.714C246.544 15.714 246.197 15.766 245.851 15.87C245.504 15.9567 245.218 16.1127 244.993 16.338C245.478 16.5113 245.851 16.78 246.111 17.144C246.388 17.4907 246.527 17.8893 246.527 18.34C246.527 18.9293 246.319 19.3973 245.903 19.744C245.504 20.0907 245.027 20.264 244.473 20.264C243.849 20.264 243.372 20.0733 243.043 19.692C242.731 19.2933 242.575 18.8167 242.575 18.262C242.575 17.7593 242.696 17.3433 242.939 17.014C243.199 16.6847 243.554 16.3727 244.005 16.078C244.49 15.8007 245.071 15.584 245.747 15.428C246.44 15.272 247.185 15.194 247.983 15.194C248.78 15.194 249.499 15.2807 250.141 15.454C250.782 15.61 251.319 15.9047 251.753 16.338C252.151 16.7367 252.411 17.2307 252.533 17.82C252.654 18.392 252.715 19.12 252.715 20.004V27.076C252.715 27.5093 252.758 27.8127 252.845 27.986C252.931 28.142 253.079 28.22 253.287 28.22C253.443 28.22 253.59 28.1767 253.729 28.09C253.885 28.0033 254.049 27.8993 254.223 27.778L254.483 28.22C254.119 28.532 253.694 28.7747 253.209 28.948C252.741 29.104 252.212 29.182 251.623 29.182C250.981 29.182 250.47 29.0953 250.089 28.922C249.707 28.7313 249.43 28.48 249.257 28.168C249.101 27.856 249.023 27.492 249.023 27.076C248.607 27.7347 248.104 28.2547 247.515 28.636C246.925 29 246.206 29.182 245.357 29.182ZM247.203 27.518C247.549 27.518 247.861 27.44 248.139 27.284C248.433 27.1107 248.711 26.8333 248.971 26.452V21.122C248.815 21.382 248.598 21.616 248.321 21.824C248.043 22.032 247.749 22.2487 247.437 22.474C247.125 22.682 246.821 22.916 246.527 23.176C246.249 23.436 246.024 23.7567 245.851 24.138C245.677 24.5193 245.591 24.9787 245.591 25.516C245.591 26.192 245.738 26.6947 246.033 27.024C246.327 27.3533 246.717 27.518 247.203 27.518ZM261.986 15.194C262.662 15.194 263.277 15.272 263.832 15.428C264.404 15.5667 264.872 15.7487 265.236 15.974C265.686 16.2513 266.033 16.598 266.276 17.014C266.536 17.4127 266.666 17.8807 266.666 18.418C266.666 19.0247 266.475 19.5273 266.094 19.926C265.712 20.3073 265.218 20.498 264.612 20.498C264.005 20.498 263.52 20.3247 263.156 19.978C262.792 19.6313 262.61 19.1633 262.61 18.574C262.61 18.0193 262.783 17.56 263.13 17.196C263.476 16.8147 263.875 16.5633 264.326 16.442C264.187 16.2687 263.979 16.1213 263.702 16C263.424 15.8787 263.112 15.818 262.766 15.818C262.228 15.818 261.752 15.974 261.336 16.286C260.937 16.598 260.599 17.0313 260.322 17.586C260.044 18.1407 259.828 18.7907 259.672 19.536C259.533 20.2813 259.464 21.096 259.464 21.98C259.464 23.3147 259.628 24.3633 259.958 25.126C260.304 25.8887 260.738 26.426 261.258 26.738C261.795 27.05 262.35 27.206 262.922 27.206C263.251 27.206 263.606 27.154 263.988 27.05C264.386 26.946 264.785 26.738 265.184 26.426C265.6 26.114 265.981 25.672 266.328 25.1L266.77 25.256C266.579 25.8973 266.267 26.5387 265.834 27.18C265.4 27.8213 264.837 28.35 264.144 28.766C263.45 29.1647 262.601 29.364 261.596 29.364C260.469 29.364 259.446 29.1213 258.528 28.636C257.626 28.1333 256.898 27.3707 256.344 26.348C255.806 25.308 255.538 23.9733 255.538 22.344C255.538 20.784 255.815 19.4753 256.37 18.418C256.942 17.3433 257.713 16.5373 258.684 16C259.654 15.4627 260.755 15.194 261.986 15.194ZM273.402 11.294V15.558H276.47V16.078H273.402V26.582C273.402 27.102 273.497 27.4747 273.688 27.7C273.879 27.908 274.165 28.012 274.546 28.012C274.858 28.012 275.17 27.8993 275.482 27.674C275.794 27.4313 276.071 27.024 276.314 26.452L276.756 26.686C276.479 27.466 276.054 28.1073 275.482 28.61C274.927 29.1127 274.165 29.364 273.194 29.364C272.622 29.364 272.119 29.286 271.686 29.13C271.253 28.9913 270.889 28.7747 270.594 28.48C270.213 28.0987 269.961 27.6307 269.84 27.076C269.719 26.504 269.658 25.7673 269.658 24.866V16.078H267.474V15.558H269.658V12.126C270.386 12.126 271.053 12.0653 271.66 11.944C272.284 11.8053 272.865 11.5887 273.402 11.294Z" fill="#F9F9F9"/>
<path d="M4.62033 16.5433C4.62033 16.8029 4.41372 17.0134 4.15896 17.0134C3.90421 17.0134 3.6976 16.8028 3.6976 16.5433C3.6976 16.2839 3.90421 16.0735 4.15896 16.0735C4.41372 16.0734 4.62033 16.2839 4.62033 16.5433ZM10.8076 16.0285C8.08661 15.7267 6.7195 16.8243 3.34206 19.377C0.450311 21.5626 -0.094539 19.8448 0.0123335 19.0978C0.169548 17.9999 2.65761 12.843 5.05485 9.65138C8.02011 10.4352 10.2852 12.9326 10.8076 16.0285ZM4.94315 16.5433C4.94315 16.1022 4.59191 15.7447 4.15886 15.7447C3.72581 15.7447 3.37457 16.1022 3.37457 16.5433C3.37457 16.9844 3.72581 17.3422 4.15886 17.3422C4.59201 17.3422 4.94315 16.9844 4.94315 16.5433ZM3.3666 21.7143L3.34206 23.2137L5.48297 25.6364L4.45326 26.4216L7.94638 29.3574L6.7131 30.2249L11.1843 32.3541L10.049 33.395L15.1138 34.2576L14.3244 35.3582L19.4382 34.8744L19.019 36.1265L24.6737 34.188L24.3842 35.6143L29.4265 31.9467L29.5816 33.395L33.1566 28.2077L33.9409 29.7247L35.5337 23.436L36.6236 24.3473L36.3991 18.166L37.8479 18.7138L35.6368 13.2459L37.0427 13.2511L33.5086 8.75202L35.1145 8.60615L30.1825 5.10024L31.6775 4.20334L25.9283 2.63549L26.8992 1.38662L21.6945 1.42421L21.7575 0L17.7157 1.50398L17.5482 0.148967L14.4035 2.4373L13.7275 1.27845L11.3582 4.10872L10.6219 3.08656L8.63723 6.32156L7.6308 5.38781L5.87364 8.60615C9.17841 9.69506 11.6399 12.6588 12.0749 16.2464C12.1172 16.2557 9.72871 19.5842 13.2238 22.424C13.1634 22.1053 12.5827 16.668 18.2052 16.272C21.0021 16.0751 23.2814 18.5857 23.2814 21.4404C23.2814 22.3144 23.0664 23.1365 22.6903 23.8581C21.0199 27.0201 15.888 27.1423 14.2549 27.1253C9.51916 27.0763 3.34195 21.6236 3.34195 21.6236L3.3666 21.7143Z" fill="#F9F9F9"/>
</svg>
